<svg fill="none" height="24" viewBox="0 0 24 24" width="24" xmlns="http://www.w3.org/2000/svg">
    <g stroke="#fff" stroke-linecap="round" stroke-linejoin="round">
        <g stroke-miterlimit="10">
            <path d="m9.56953 12.46-3.05 3.05" stroke-width="1" />
            <path d="m6.55078 12.49 3.05 3.05" stroke-width="1" />
            <path d="m13.5293 14h.01" stroke-width="1" />
            <path d="m17.4707 14h.01" stroke-width="1" />
            <path d="m15.5 15.98v-.02" stroke-width="1" />
            <path d="m15.5 12.04v-.02" stroke-width="1" />
        </g>
        <path d="m2 15c0 5 2 7 7 7h6c5 0 7-2 7-7v-2c0-5-2-7-7-7h-6c-3.75 0-5.81 1.12-6.61 3.8" stroke-width="1" />
        <path d="m13.0105 2-.01 1.01c-.01.55-.45.99-1 .99h-.03c-.55 0-.99.45-.99 1s.45 1 1 1h1" stroke-width="1" />
    </g>
</svg>