<svg xmlns="http://www.w3.org/2000/svg" width="24" height="24" viewBox="0 0 24 24">
   <g id="_310595040">
      <path fill="none" stroke="#fff" stroke-width="1" stroke-linecap="round" d="M1 5c2.1,-2.7 6,-4.5 10.4,-4.5 4.4,0 8.3,1.8 10.4,4.4"/>
      <path fill="none" stroke="#fff" stroke-width="1" stroke-linecap="round" d="M3.6 8.2c1.5,-1.5 3.9,-2.6 6.6,-2.8"/>
      <path fill="none" stroke="#fff" stroke-width="1" stroke-linecap="round" stroke-linejoin="round" d="M6.6 11.4c0.7,-0.9 1.8,-1.6 3.1,-1.9"/>
      <circle fill="#fff" cx="11.1" cy="14.6" r="1.4"/>
      <path fill="#ED3237" d="M15.2 3.6c-2.4,0 -4.3,2 -4.3,4.4 0,2.4 2,4.3 4.4,4.3 2.4,0 4.3,-2 4.3,-4.4 0,-2.4 -2,-4.3 -4.4,-4.3zm-0.4 5.9l-0.4 -3.2 0 -1.5 1.6 0 0 1.5 -0.4 3.2 -0.8 0zm-0.3 1.6l0 -1.2 1.5 0 0 1.2 -1.5 0z"/>
    </g>
</svg>
