<svg xmlns="http://www.w3.org/2000/svg" width="24" height="24" viewBox="0 0 24 24">
   <g>
      <path fill="none" stroke="#fff" stroke-width="1" stroke-linecap="round" d="M1 8c2.1-2.7 6-4.5 10.4-4.5 4.4 0 8.3 1.8 10.4 4.4" />
      <path fill="none" stroke="#fff" stroke-width="1" stroke-linecap="round" d="M3.6 11.2c1.5-1.5 3.9-2.6 6.6-2.8" />
      <path fill="none" stroke="#fff" stroke-width="1" stroke-linecap="round" stroke-linejoin="round" d="M6.6 14.4c0.7-0.9 1.8-1.6 3.1-1.9" />
      <circle fill="#fff" cx="11.1" cy="17.6" r="1.4" />
      <path fill="#ED3237" d="M15.2 6.6c-2.4 0-4.3 2-4.3 4.4 0 2.4 2 4.3 4.4 4.3 2.4 0 4.3-2 4.3-4.4 0-2.4-2-4.3-4.4-4.3zm-0.4 5.9l-0.4-3.2v-1.5h1.6v1.5l-0.4 3.2h-0.8zm-0.3 1.6v-1.2h1.5v1.2h-1.5z" />
    </g>
</svg>
